Coordinates
version=1
nRows=10
nColumns=63
inDegrees=yes

Units are S.I. units (second, meters, Newtons, ...)
If the header above contains a line with 'inDegrees', this indicates whether rotational values are in degrees (yes) or radians (no).

endheader
time	pelvis_tilt	pelvis_list	pelvis_rotation	pelvis_tx	pelvis_ty	pelvis_tz	hip_flexion_r	hip_adduction_r	hip_rotation_r	knee_angle_r	knee_angle_r_beta	ankle_angle_r	subtalar_angle_r	mtp_angle_r	hip_flexion_l	hip_adduction_l	hip_rotation_l	knee_angle_l	knee_angle_l_beta	ankle_angle_l	subtalar_angle_l	mtp_angle_l	L5_S1_Flex_Ext	L5_S1_Lat_Bending	L5_S1_axial_rotation	L4_L5_Flex_Ext	L4_L5_Lat_Bending	L4_L5_axial_rotation	L3_L4_Flex_Ext	L3_L4_Lat_Bending	L3_L4_axial_rotation	L2_L3_Flex_Ext	L2_L3_Lat_Bending	L2_L3_axial_rotation	L1_L2_Flex_Ext	L1_L2_Lat_Bending	L1_L2_axial_rotation	L1_T12_Flex_Ext	L1_T12_Lat_Bending	L1_T12_axial_rotation	Abs_r3	Abs_r2	Abs_r1	Abs_t1	Abs_t2	neck_flexion	neck_bending	neck_rotation	arm_flex_r	arm_add_r	arm_rot_r	elbow_flex_r	pro_sup_r	wrist_flex_r	wrist_dev_r	arm_flex_l	arm_add_l	arm_rot_l	elbow_flex_l	pro_sup_l	wrist_flex_l	wrist_dev_l
      0.00000000	      0.57147671	      6.67995334	    -95.91556392	     -0.01277153	      0.87025800	      0.16138673	      5.79993227	     -3.83328402	      1.00859164	      7.98663080	      0.13939300	      8.67333978	      8.57454533	      0.00000000	      2.84493145	     -3.54878721	    -13.87013551	      7.19305636	      0.12554252	      6.81067027	      0.83148299	      0.00000000	      0.00858864	      0.13176651	     -0.25302735	      0.01594996	      0.17524945	     -0.26884156	      0.01411027	      0.32037709	     -0.26884156	      0.00981595	      0.32037709	     -0.22139893	      0.00797541	      0.26869826	     -0.20558472	      0.00490755	      0.20410632	     -0.18977051	      0.06134777	      1.49056908	     -1.40726221	      0.00000000	      0.00000000	      0.00000000	      0.00000000	      0.00000001	     -5.31274444	     -7.89797854	     -5.22916424	     31.98929977	     89.99559364	      0.00000000	      0.00000000	     -7.38847702	     -8.33587161	     -4.81106164	     37.74689957	     89.99559364	      0.00000000	      0.00000000
      0.03333333	      0.22684242	      7.10762003	    -97.48640022	     -0.01487242	      0.87145477	      0.16467127	      5.77047160	     -3.08679036	      1.65521319	      6.59767939	      0.11515123	      7.38068182	      9.03538825	      0.00000000	      1.88926103	     -3.63632611	    -15.27488027	      4.96821226	      0.08671166	      5.56026671	      0.94565602	      0.00000000	      0.01134122	      0.15775829	      0.00893801	      0.02106178	      0.20981853	      0.00949664	      0.01863249	      0.38357352	      0.00949664	      0.01296188	      0.38357352	      0.00782076	      0.01053146	      0.32170071	      0.00726214	      0.00648037	      0.24436760	      0.00670351	      0.08100920	      1.78459338	      0.04971055	      0.00000000	      0.00000000	      0.00000000	      0.00000000	      0.00000001	     -7.51128429	    -10.07557193	     -1.73440124	     37.09553765	     89.99559364	      0.00000000	      0.00000000	     -7.34309949	     -6.64353065	     -9.90341010	     37.36403785	     89.99559364	      0.00000000	      0.00000000
      0.06666667	      0.14570547	      7.90435271	    -98.88702579	     -0.01752076	      0.87095712	      0.16608768	      6.31508766	     -2.54919611	      2.23963217	      5.57414781	      0.09728723	      6.46129075	      9.54901991	      0.00000000	      1.82302394	     -3.62111523	    -16.61094954	      3.29704682	      0.05754432	      4.57624223	      0.53941770	      0.00000000	      0.01508540	      0.17179143	      0.17059052	      0.02801510	      0.22848260	      0.18125243	      0.02478380	      0.41769367	      0.18125243	      0.01724110	      0.41769367	      0.14926671	      0.01400830	      0.35031708	      0.13860480	      0.00861980	      0.26610492	      0.12794289	      0.10775351	      1.94333897	      0.94877332	      0.00000000	      0.00000000	      0.00000000	      0.00000000	      0.00000001	     -8.92576182	    -11.55366609	     -0.22864127	     41.61105442	     89.99559364	      0.00000000	      0.00000000	     -7.51731068	     -6.21384532	    -11.71474210	     37.15280215	     89.99559364	      0.00000000	      0.00000000
      0.10000000	      0.33024119	      9.07062048	    -99.83283870	     -0.02020581	      0.86895469	      0.16460389	      7.60039524	     -2.23852216	      2.52030409	      5.18549860	      0.09050402	      5.97081508	      9.74632563	      0.00000000	      2.93091481	     -3.64098159	    -17.99374714	      2.62085807	      0.04574260	      4.11463903	      0.21295350	      0.00000000	      0.01734379	      0.16439433	      0.15808981	      0.03220916	      0.21864445	      0.16797042	      0.02849412	      0.39970837	      0.16797042	      0.01982222	      0.39970837	      0.13832858	      0.01610544	      0.33523291	      0.12844797	      0.00991024	      0.25464681	      0.11856735	      0.12388497	      1.85966150	      0.87924807	      0.00000000	      0.00000000	      0.00000000	      0.00000000	      0.00000001	     -8.42889471	    -13.01969750	      3.17769609	     43.92307082	     89.99559364	      0.00000000	      0.00000000	     -8.46619883	     -6.11939977	    -14.00524626	     37.57475249	     89.99559364	      0.00000000	      0.00000000
      0.13333333	      0.57505918	     10.55646550	   -100.57417074	     -0.02259857	      0.86666986	      0.16051958	      9.76217892	     -1.94383375	      2.70707690	      5.72437183	      0.09990914	      5.87592438	      9.69290936	      0.00000000	      5.08944886	     -3.96302390	    -19.10756110	      3.18253092	      0.05554564	      4.31086033	     -0.20673644	      0.00000000	      0.01848368	      0.14866930	      0.16200207	      0.03432605	      0.19773018	      0.17212720	      0.03036684	      0.36147455	      0.17212720	      0.02112500	      0.36147455	      0.14175181	      0.01716395	      0.30316645	      0.13162669	      0.01056158	      0.23028875	      0.12150156	      0.13202709	      1.68177691	      0.90100694	      0.00000000	      0.00000000	      0.00000000	      0.00000000	      0.00000001	     -6.89008300	    -14.17706133	      6.14784853	     44.40078811	     89.99559364	      0.00000000	      0.00000000	     -9.47039558	     -6.55817525	    -14.39713133	     37.92051865	     89.99559364	      0.00000000	      0.00000000
      0.16666667	      0.81392933	     12.49762411	   -101.07672420	     -0.02455682	      0.86481255	      0.15496053	     13.03366111	     -1.53248044	      3.43090918	      7.40120688	      0.12917543	      5.88105064	      8.76463878	      0.00000000	      8.31014091	     -4.67176269	    -19.86933202	      4.85924465	      0.08480982	      4.86258571	     -0.52540861	      0.00000000	      0.01874729	      0.11338387	      0.15816025	      0.03481558	      0.15080055	      0.16804526	      0.03079992	      0.27568155	      0.16804526	      0.02142627	      0.27568155	      0.13839022	      0.01740873	      0.23121239	      0.12850520	      0.01071220	      0.17563162	      0.11862019	      0.13390999	      1.28262104	      0.87963985	      0.00000000	      0.00000000	      0.00000000	      0.00000000	      0.00000001	     -4.71539779	    -15.20940619	      9.21002808	     43.32358149	     89.99559364	      0.00000000	      0.00000000	     -9.84882913	     -6.79884673	    -15.60598824	     38.12496525	     89.99559364	      0.00000000	      0.00000000
      0.20000000	      1.03652107	     15.13671507	   -101.21537895	     -0.02607363	      0.86198084	      0.14783225	     17.85369089	     -0.98303878	      3.93738340	     10.54656966	      0.18407237	      6.18635527	      7.93337237	      0.00000000	     12.87920956	     -5.74670398	    -20.20596663	      7.57799231	      0.13226092	      5.60840640	     -1.11269428	      0.00000000	      0.01977356	      0.06827754	      0.16121397	      0.03672148	      0.09080912	      0.17128984	      0.03248598	      0.16601000	      0.17128984	      0.02259920	      0.16601000	      0.14106222	      0.01836173	      0.13923155	      0.13098635	      0.01129861	      0.10576190	      0.12091048	      0.14124056	      0.77236915	      0.89662374	      0.00000000	      0.00000000	      0.00000000	      0.00000000	      0.00000001	     -2.67413942	    -15.35615456	      9.35767190	     41.69521046	     89.99559364	      0.00000000	      0.00000000	     -8.81215463	     -7.34429738	    -16.09704333	     37.86139275	     89.99559364	      0.00000000	      0.00000000
      0.23333333	      1.22259561	     18.85400123	   -100.62164984	     -0.02703092	      0.85423477	      0.13610399	     24.82958870	      0.24676683	      8.50482987	     15.49966395	      0.27052017	      6.53227000	      0.25375372	      0.00000000	     19.88793700	     -7.21036041	    -19.00119313	     12.28562198	      0.21442455	      7.22339388	     -2.99797022	      0.00000000	      0.02034260	      0.01567710	      0.28387553	      0.03777824	      0.02085055	      0.30161775	      0.03342086	      0.03811731	      0.30161775	      0.02324956	      0.03811731	      0.24839109	      0.01889014	      0.03196875	      0.23064887	      0.01162376	      0.02428383	      0.21290665	      0.14530515	      0.17734252	      1.57883053	      0.00000000	      0.00000000	      0.00000000	      0.00000000	      0.00000001	     -0.68066935	    -15.09896419	      7.90376303	     40.11857952	     89.99559364	      0.00000000	      0.00000000	     -6.18953758	     -8.02283537	    -16.52112131	     38.46597586	     89.99559364	      0.00000000	      0.00000000
      0.26666667	      1.10922013	     24.20826372	    -98.48745062	     -0.02652370	      0.83725570	      0.11688239	     34.77314273	      0.94668379	      7.79047360	     22.44217960	      0.39168993	      8.63205905	     -3.18345239	      0.00000000	     30.83831670	     -8.81071335	    -15.87306915	     20.05487797	      0.35002365	      9.83867190	     -5.39750978	      0.00000000	      0.02001230	     -0.02004133	      0.67576632	      0.03716484	     -0.02665498	      0.71800171	      0.03287820	     -0.04872850	      0.71800171	      0.02287205	     -0.04872850	      0.59129553	      0.01858342	     -0.04086829	      0.54906013	      0.01143503	     -0.03104403	      0.50682474	      0.14294583	     -0.22671159	      3.75840953	      0.00000000	      0.00000000	      0.00000000	      0.00000000	      0.00000001	      0.32609416	    -14.35703017	      0.63174931	     39.81954662	     89.99559364	      0.00000000	      0.00000000	     -1.83135362	     -9.24349879	    -13.16030263	     40.80876733	     89.99559364	      0.00000000	      0.00000000
      0.30000000	      0.84295987	     30.51624360	    -95.97872242	     -0.02653060	      0.81118218	      0.09373006	     46.40596819	      0.94282994	      5.83562607	     30.39821216	      0.53054889	     11.77664426	     -5.69093335	      0.00000000	     43.97870578	     -9.82523464	    -12.31160938	     29.36264950	      0.51247491	     12.39601678	     -6.63545302	      0.00000000	      0.01916490	     -0.09315313	      1.27085784	      0.03559114	     -0.12389366	      1.35028645	      0.03148602	     -0.22649252	      1.35028645	      0.02190357	     -0.22649252	      1.11200061	      0.01779653	     -0.18995786	      1.03257199	      0.01095083	     -0.14429420	      0.95314338	      0.13689299	     -1.05376682	      7.06813003	      0.00000000	      0.00000000	      0.00000000	      0.00000000	      0.00000001	      1.11311295	    -14.35438435	     -6.71318258	     40.24345291	     89.99559364	      0.00000000	      0.00000000	      2.83444221	    -10.11135693	     -9.45397053	     45.07876003	     89.99559364	      0.00000000	      0.00000000
